<?xml version="1.0" encoding="utf-8"?>
<!-- Generator: Adobe Illustrator 18.1.0, SVG Export Plug-In . SVG Version: 6.00 Build 0)  -->
<svg version="1.1" id="Layer_2" xmlns="http://www.w3.org/2000/svg" xmlns:xlink="http://www.w3.org/1999/xlink" x="0px" y="0px"
	 viewBox="10 0 960 560" enable-background="new 10 0 960 560" xml:space="preserve">
<circle fill="#00D8FF" cx="368.9" cy="272.8" r="39"/>
<path fill="none" stroke="#00D8FF" stroke-width="20" stroke-miterlimit="10" d="M368.9,193.2c52.7,0,101.3,7.6,138.1,20.3
	c44.4,15.1,71.6,38.4,71.6,59.3c0,21.9-29,46.4-76.6,62.3c-35.9,11.8-83.4,18.1-133.1,18.1c-51.1,0-99.5-5.8-136.1-18.3
	c-46-15.9-73.8-40.6-73.8-62c0-20.7,26.1-43.7,69.8-58.9C265.8,200.8,315.8,193.2,368.9,193.2z"/>
<path fill="none" stroke="#00D8FF" stroke-width="20" stroke-miterlimit="10" d="M299.8,233.1c26.3-45.5,57.1-84.1,86.5-109.5
	c35.4-30.8,69.2-42.8,87.2-32.4c18.9,10.9,25.9,48.2,15.6,97.3c-7.6,37.2-25.9,81.2-50.9,124.5c-25.7,44.4-54.9,83.4-83.9,108.6
	c-36.6,32.1-72,43.7-90.5,33c-18.1-10.5-25-44.4-16.3-89.9C254.9,326.4,273.2,279,299.8,233.1z"/>
<path fill="none" stroke="#00D8FF" stroke-width="20" stroke-miterlimit="10" d="M299.8,313.2c-26.3-45.5-44.4-91.5-51.7-129.8
	c-8.9-46-2.6-81.2,15.4-91.7c18.9-10.9,54.7,1.8,92.1,35C383.8,152,413,189.9,438.1,233c25.7,44.2,44.8,89,52.2,126.9
	c9.4,47.7,1.8,84.3-16.7,95.1c-18.1,10.5-50.9-0.6-86.1-30.8C357.9,398.4,326.3,359.2,299.8,313.2z"/>
<polyline fill="none" stroke="#00D8FF" stroke-width="20" stroke-linecap="round" stroke-linejoin="round" stroke-miterlimit="10" points="
	162.9,435 21.4,273.9 21.4,272.4 162.9,111.1 "/>
<polyline fill="none" stroke="#00D8FF" stroke-width="20" stroke-linecap="round" stroke-linejoin="round" stroke-miterlimit="10" points="
	818.8,435 960.3,273.9 960.3,272.4 818.8,111.1 "/>
<line fill="none" stroke="#00D8FF" stroke-width="20" stroke-linecap="round" stroke-linejoin="round" stroke-miterlimit="10" x1="733.2" y1="96.2" x2="606.6" y2="449.9"/>
</svg>
